<svg xmlns="http://www.w3.org/2000/svg" viewBox="0 0 320 100" role="img" aria-labelledby="t3">
  <title id="t3">Listening: headphones and focus</title>
  <rect width="320" height="100" fill="#fafafa" rx="8"/>
  <path d="M96 52c0-22 18-40 40-40s40 18 40 40v8h-12v-8c0-15-13-28-28-28s-28 13-28 28v24h-12V52z" fill="#334155"/>
  <rect x="84" y="48" width="20" height="36" rx="8" fill="#475569"/>
  <rect x="168" y="48" width="20" height="36" rx="8" fill="#475569"/>
  <path d="M200 38h8c22 0 40 18 40 40v4h-10v-4c0-17-13-30-30-30h-8v-10z" fill="none" stroke="#64748b" stroke-width="2"/>
  <text x="160" y="88" text-anchor="middle" font-family="system-ui,sans-serif" font-size="11" fill="#64748b">Eerst luisteren Ę daarna transcript</text>
</svg>
